<?xml version="1.0" encoding="utf-8"?>
<!-- Generator: Adobe Illustrator 23.1.1, SVG Export Plug-In . SVG Version: 6.00 Build 0)  -->
<svg version="1.1" id="Layer_1" xmlns="http://www.w3.org/2000/svg" xmlns:xlink="http://www.w3.org/1999/xlink" x="0px" y="0px"
	 viewBox="0 0 178.95 18.99" style="enable-background:new 0 0 178.95 18.99;" xml:space="preserve">
<style type="text/css">
	.st0{fill:none;stroke:#000000;stroke-width:0.5;stroke-miterlimit:10;}
	.st1{fill:none;}
</style>
<path d="M38.5,9.12c0,5.52-2.1,9.85-7.23,9.85c-4.72,0-7.05-4.15-7.05-9.67c0-5.15,2.51-9.3,7.23-9.3C35.99,0,38.5,3.94,38.5,9.12z
	 M24.75,9.27c0,4.94,2.03,9.19,6.52,9.19c4.72,0,6.69-3.99,6.69-9.35c0-4.89-2.28-8.61-6.54-8.61C27.01,0.5,24.75,4.41,24.75,9.27z"
	/>
<path d="M116.61,9.12c0,5.52-2.1,9.85-7.23,9.85c-4.72,0-7.05-4.15-7.05-9.67c0-5.15,2.51-9.3,7.23-9.3
	C114.1,0,116.61,3.94,116.61,9.12z M102.86,9.27c0,4.94,2.03,9.19,6.52,9.19c4.72,0,6.69-3.99,6.69-9.35c0-4.89-2.28-8.61-6.54-8.61
	C105.12,0.5,102.86,4.41,102.86,9.27z"/>
<path d="M0,0h0.53v18.24h14.02l-0.13,0.48H0V0z"/>
<path d="M19.33,0v18.72H18.8V0H19.33z"/>
<path d="M71.51,11.09C69.39,5,68.23,1.6,67.94,0.57h-0.03c-0.21,0.92-1.93,5.65-3.62,10.52l-0.18,0.49l-2.59,7.39h-0.55L67.68,0
	h0.55l6.57,18.97h-0.58l-2.56-7.39"/>
<path d="M121.61,14.08c0.4,3.11,2.59,4.41,5.23,4.41c3.06,0,5.04-1.58,5.04-4.33c0-2.48-1.24-3.8-5.01-4.91
	c-3.54-1.03-5.12-2.19-5.12-4.78c0-2.85,2.11-4.43,5.07-4.43c3.4,0,5.01,2.01,5.28,4.49h-0.53c-0.37-2.74-2.3-3.98-4.78-3.98
	c-2.74,0-4.49,1.48-4.49,3.91c0,2.32,1.4,3.35,4.78,4.33c4.33,1.24,5.36,2.9,5.36,5.36c0,3.01-2.06,4.86-5.62,4.86
	c-3.62,0-5.38-2.01-5.75-4.91H121.61z"/>
<path d="M151.57,0h5.33c3.51,0,5.41,1.9,5.41,4.77c0,3.14-1.87,5.04-5.41,5.04h-4.8v8.9h-0.53 M152.09,9.33h4.72
	c3.06,0,4.93-1.31,4.93-4.56c0-2.55-1.64-4.29-4.91-4.29h-4.75"/>
<path d="M166.76,0h0.53v8.67h11.14V0h0.53v18.97h-0.53V9.16h-11.14v9.81h-0.53V0z"/>
<path d="M93.72,17.49c-0.8,0.98-1.99,1.48-3.58,1.48c-1.11,0-2.05-0.28-2.82-0.85c-0.77-0.57-1.31-1.25-1.61-2.05l0.5-0.24
	c0.35,0.78,0.87,1.42,1.56,1.89c0.69,0.48,1.48,0.72,2.37,0.72c0.76,0,1.4-0.13,1.93-0.38c0.53-0.25,0.96-0.61,1.29-1.06
	c0.33-0.45,0.58-0.99,0.74-1.61c0.16-0.62,0.24-1.29,0.24-2.02V0h0.58v13.46C94.92,15.16,94.52,16.51,93.72,17.49z"/>
<path d="M135.52,18.39h10.74v0.55l-10.74,0.02 M135.76,0h10.74v0.55l-10.74,0.02 M136.17,8.49h9.71v0.55h-9.71"/>
<circle cx="81.19" cy="8.39" r="0.54"/>
<g>
	<path d="M51.69,8.93l5.9,10.04H56.9L51.03,8.95"/>
	<path d="M48.8,9.4h-4.55v9.57h-0.6V0h5.37c0.71,0,1.43,0.06,2.17,0.19c0.73,0.13,1.38,0.36,1.96,0.71
		c0.58,0.35,1.05,0.83,1.41,1.43c0.37,0.61,0.55,1.39,0.55,2.36c0,0.89-0.17,1.63-0.52,2.22c-0.35,0.59-0.8,1.07-1.34,1.43
		c-0.55,0.37-1.16,0.63-1.82,0.79c-0.67,0.16-1.32,0.24-1.96,0.24 M54.5,4.69c0-0.82-0.16-1.5-0.49-2.05
		c-0.33-0.54-0.76-0.97-1.3-1.29c-0.54-0.31-1.16-0.53-1.86-0.66c-0.7-0.12-1.42-0.19-2.15-0.19h-4.44V8.9h4.74
		c1.79,0,3.16-0.37,4.1-1.1C54.03,7.06,54.5,6.03,54.5,4.69z"/>
	<path class="st0" d="M51.11,8.93"/>
	<path class="st1" d="M50.88,9.25"/>
</g>
</svg>
